<?xml version="1.0" encoding="UTF-8" standalone="no"?>
<svg
   role="img"
   viewBox="0 0 24 24"
   version="1.1"
   id="svg1"
   sodipodi:docname="orcid_white.svg"
   inkscape:version="1.4 (e7c3feb1, 2024-10-09)"
   xmlns:inkscape="http://www.inkscape.org/namespaces/inkscape"
   xmlns:sodipodi="http://sodipodi.sourceforge.net/DTD/sodipodi-0.dtd"
   xmlns="http://www.w3.org/2000/svg"
   xmlns:svg="http://www.w3.org/2000/svg"
   xmlns:rdf="http://www.w3.org/1999/02/22-rdf-syntax-ns#"
   xmlns:cc="http://creativecommons.org/ns#"
   xmlns:dc="http://purl.org/dc/elements/1.1/">
  <defs
     id="defs1" />
  <sodipodi:namedview
     id="namedview1"
     pagecolor="#ffffff"
     bordercolor="#666666"
     borderopacity="1.0"
     inkscape:showpageshadow="2"
     inkscape:pageopacity="0.0"
     inkscape:pagecheckerboard="0"
     inkscape:deskcolor="#d1d1d1"
     inkscape:zoom="42.041667"
     inkscape:cx="12"
     inkscape:cy="12"
     inkscape:window-width="2560"
     inkscape:window-height="1296"
     inkscape:window-x="0"
     inkscape:window-y="25"
     inkscape:window-maximized="1"
     inkscape:current-layer="svg1" />
  <title
     id="title1">ORCID</title>
  <path
     d="M12 0C5.372 0 0 5.372 0 12s5.372 12 12 12 12-5.372 12-12S18.628 0 12 0zM7.369 4.378c.525 0 .947.431.947.947s-.422.947-.947.947a.95.95 0 0 1-.947-.947c0-.525.422-.947.947-.947zm-.722 3.038h1.444v10.041H6.647V7.416zm3.562 0h3.9c3.712 0 5.344 2.653 5.344 5.025 0 2.578-2.016 5.025-5.325 5.025h-3.919V7.416zm1.444 1.303v7.444h2.297c3.272 0 4.022-2.484 4.022-3.722 0-2.016-1.284-3.722-4.097-3.722h-2.222z"
     id="path1" />
  <path
     style="fill:#ffffff;stroke-width:0.0237859"
     d="M 11.512389,23.972442 C 9.6246153,23.906999 7.7306233,23.365244 6.0733085,22.416648 2.7832812,20.533539 0.58594318,17.248853 0.10739501,13.498513 -0.31065105,10.222324 0.67020043,6.8663448 2.7838801,4.3409316 4.7490796,1.9929216 7.5067873,0.47799256 10.489594,0.10784718 c 0.716323,-0.08889068 1.788211,-0.11547987 2.438057,-0.06047829 3.936474,0.33317475 7.34567,2.45184511 9.370153,5.82315171 1.675461,2.7900928 2.131354,6.2397634 1.239709,9.3806834 -0.416184,1.466054 -1.127693,2.879973 -2.044556,4.062968 -1.666262,2.149917 -3.998976,3.676631 -6.593134,4.315072 -1.154181,0.284054 -2.158449,0.385801 -3.387434,0.343198 z m 3.094662,-6.514072 c 1.963194,-0.155441 3.534558,-1.175829 4.339834,-2.818132 0.394057,-0.803651 0.568766,-1.692455 0.502169,-2.554702 C 19.273472,9.8122394 17.820067,8.0820899 15.663033,7.578613 14.961411,7.4148461 14.63972,7.3979391 12.22002,7.3976584 l -2.02775,-2.352e-4 v 5.0426168 5.042616 h 2.054028 c 1.181405,0 2.184336,-0.01032 2.360753,-0.02429 z M 8.099108,12.428147 V 7.3974232 H 7.3617443 6.6243806 V 12.428147 17.45887 H 7.3617443 8.099108 Z M 7.7730641,6.1901416 C 8.370847,5.9104051 8.5118783,5.1188432 8.0467069,4.6542727 7.9774107,4.5850656 7.8564916,4.4969559 7.777998,4.4584726 7.6463462,4.3939276 7.614999,4.3885035 7.3736373,4.3885035 c -0.244208,0 -0.2719491,0.00495 -0.4162538,0.074336 -0.2646377,0.1272379 -0.4400917,0.3418167 -0.513442,0.6279354 -0.099065,0.3864219 0.05738,0.7984379 0.3900894,1.027348 0.2651427,0.182423 0.6414337,0.2112825 0.9390332,0.072019 z"
     id="path2" />
  <path
     style="fill:#ffffff;stroke-width:0.0237859"
     d="M 11.666997,12.438213 V 8.7257817 l 1.397423,0.010141 c 1.481938,0.010755 1.587432,0.017714 2.106329,0.1389542 1.269931,0.2967178 2.170172,1.0775595 2.571447,2.2303931 0.283017,0.813086 0.28302,1.75949 9e-6,2.575152 -0.197749,0.569932 -0.454951,0.988527 -0.853905,1.389731 -0.614502,0.617966 -1.384471,0.955271 -2.411137,1.056261 -0.13548,0.01333 -0.82319,0.02423 -1.528246,0.02423 h -1.28192 z"
     id="path3" />
  <metadata
     id="metadata3">
    <rdf:RDF>
      <cc:Work
         rdf:about="">
        <dc:title>ORCID</dc:title>
      </cc:Work>
    </rdf:RDF>
  </metadata>
</svg>
