<?xml version="1.0" encoding="UTF-8" standalone="no"?>
<svg
   role="img"
   viewBox="0 0 24 24"
   version="1.1"
   id="svg1"
   sodipodi:docname="researchgate_white.svg"
   inkscape:version="1.4 (e7c3feb1, 2024-10-09)"
   xmlns:inkscape="http://www.inkscape.org/namespaces/inkscape"
   xmlns:sodipodi="http://sodipodi.sourceforge.net/DTD/sodipodi-0.dtd"
   xmlns="http://www.w3.org/2000/svg"
   xmlns:svg="http://www.w3.org/2000/svg"
   xmlns:rdf="http://www.w3.org/1999/02/22-rdf-syntax-ns#"
   xmlns:cc="http://creativecommons.org/ns#"
   xmlns:dc="http://purl.org/dc/elements/1.1/">
  <defs
     id="defs1" />
  <sodipodi:namedview
     id="namedview1"
     pagecolor="#ffffff"
     bordercolor="#666666"
     borderopacity="1.0"
     inkscape:showpageshadow="2"
     inkscape:pageopacity="0.0"
     inkscape:pagecheckerboard="0"
     inkscape:deskcolor="#d1d1d1"
     inkscape:zoom="42.041667"
     inkscape:cx="12"
     inkscape:cy="12"
     inkscape:window-width="2560"
     inkscape:window-height="1296"
     inkscape:window-x="0"
     inkscape:window-y="25"
     inkscape:window-maximized="1"
     inkscape:current-layer="svg1" />
  <title
     id="title1">ResearchGate</title>
  <path
     d="M19.586 0c-.818 0-1.508.19-2.073.565-.563.377-.97.936-1.213 1.68a3.193 3.193 0 0 0-.112.437 8.365 8.365 0 0 0-.078.53 9 9 0 0 0-.05.727c-.01.282-.013.621-.013 1.016a31.121 31.123 0 0 0 .014 1.017 9 9 0 0 0 .05.727 7.946 7.946 0 0 0 .077.53h-.005a3.334 3.334 0 0 0 .113.438c.245.743.65 1.303 1.214 1.68.565.376 1.256.564 2.075.564.8 0 1.536-.213 2.105-.603.57-.39.94-.916 1.175-1.65.076-.235.135-.558.177-.93a10.9 10.9 0 0 0 .043-1.207v-.82c0-.095-.047-.142-.14-.142h-3.064c-.094 0-.14.047-.14.141v.956c0 .094.046.14.14.14h1.666c.056 0 .084.03.084.086 0 .36 0 .62-.036.865-.038.244-.1.447-.147.606-.108.385-.348.664-.638.876-.29.212-.738.35-1.227.35-.545 0-.901-.15-1.21-.353-.306-.203-.517-.454-.67-.915a3.136 3.136 0 0 1-.147-.762 17.366 17.367 0 0 1-.034-.656c-.01-.26-.014-.572-.014-.939a26.401 26.403 0 0 1 .014-.938 15.821 15.822 0 0 1 .035-.656 3.19 3.19 0 0 1 .148-.76 1.89 1.89 0 0 1 .742-1.01c.344-.244.593-.352 1.137-.352.508 0 .815.096 1.144.303.33.207.528.492.764.925.047.094.111.118.198.07l1.044-.43c.075-.048.09-.115.042-.199a3.549 3.549 0 0 0-.466-.742 3 3 0 0 0-.679-.607 3.313 3.313 0 0 0-.903-.41A4.068 4.068 0 0 0 19.586 0zM8.217 5.836c-1.69 0-3.036.086-4.297.086-1.146 0-2.291 0-3.007-.029v.831l1.088.2c.744.144 1.174.488 1.174 2.264v11.288c0 1.777-.43 2.12-1.174 2.263l-1.088.2v.832c.773-.029 2.12-.086 3.465-.086 1.29 0 2.951.057 3.667.086v-.831l-1.49-.2c-.773-.115-1.174-.487-1.174-2.264v-4.784c.688.057 1.29.057 2.206.057 1.748 3.123 3.41 5.472 4.355 6.56.86 1.032 2.177 1.691 3.839 1.691.487 0 1.003-.086 1.318-.23v-.744c-1.031 0-2.063-.716-2.808-1.518-1.26-1.376-2.95-3.582-4.355-6.074 2.32-.545 4.04-2.722 4.04-4.9 0-3.208-2.492-4.698-5.758-4.698zm-.515 1.29c2.406 0 3.839 1.26 3.839 3.552 0 2.263-1.547 3.782-4.097 3.782-.974 0-1.404-.03-2.063-.086v-7.19c.66-.059 1.547-.059 2.32-.059z"
     id="path1" />
  <path
     style="fill:#ffffff;stroke-width:0.0237859"
     d="M 15.422849,23.973721 C 14.070911,23.89889 12.887015,23.347237 12.042351,22.398531 10.971663,21.195961 9.3490727,18.796639 7.9136044,16.29336 L 7.6067115,15.758176 6.610095,15.731499 c -0.5481388,-0.01467 -1.0528106,-0.03441 -1.1214924,-0.04386 l -0.1248761,-0.01718 2.088e-4,2.517593 c 1.201e-4,1.448139 0.010366,2.659051 0.02412,2.850597 0.074282,1.034506 0.3042584,1.469993 0.8670474,1.641855 0.1192246,0.03641 0.46323,0.09435 0.9163543,0.154334 0.3990089,0.05282 0.7549058,0.101964 0.790882,0.109201 l 0.065411,0.01316 v 0.405037 0.405036 l -0.2319127,-0.0145 c -1.457776,-0.09112 -5.0972479,-0.09137 -6.6362736,-4.59e-4 l -0.24380572,0.0144 v -0.406197 c 0,-0.401864 5.7083e-4,-0.406323 0.0535183,-0.418075 0.0294351,-0.0065 0.26223992,-0.04962 0.51734392,-0.09574 0.8336694,-0.150734 1.0023256,-0.208106 1.2217062,-0.415587 0.2050797,-0.193956 0.3205973,-0.455514 0.4128986,-0.934897 0.039902,-0.20724 0.042303,-0.585535 0.042303,-6.665695 0,-6.1067755 -0.00225,-6.4576911 -0.042776,-6.6684203 C 3.0293503,7.6868171 2.89576,7.395203 2.6810223,7.2022195 2.484779,7.0258567 2.2966962,6.9636967 1.5460852,6.8271304 1.2582755,6.7747663 0.9987116,6.7262534 0.96927651,6.719324 0.91641091,6.7068786 0.91575809,6.7018713 0.91575102,6.3087639 l -7.16e-6,-0.3979611 1.81368404,0.00819 c 1.3071863,0.0059 2.2345551,-0.00328 3.3207535,-0.032868 2.3770808,-0.064761 3.1329931,-0.038035 3.9993726,0.141399 2.190201,0.4536074 3.558631,1.7597454 3.852504,3.6771342 0.212729,1.387962 -0.163749,2.732581 -1.085422,3.876669 -0.681849,0.846391 -1.700867,1.522418 -2.696525,1.788904 -0.104218,0.02789 -0.1894866,0.05942 -0.1894866,0.07005 0,0.02212 0.3916126,0.691597 0.6729266,1.150402 1.018896,1.661753 2.517369,3.671813 3.635417,4.876572 0.86653,0.933734 1.810571,1.48996 2.637147,1.553799 l 0.20218,0.01562 0.0066,0.360798 0.0066,0.360799 -0.130747,0.04892 c -0.183978,0.06883 -0.560467,0.141891 -0.811319,0.157434 -0.117023,0.0073 -0.255584,0.01629 -0.307913,0.02009 -0.05233,0.0038 -0.240689,-0.0011 -0.418578,-0.01099 z M 8.0940989,14.4364 c 1.7227086,-0.189766 2.9347071,-1.161421 3.3209181,-2.662366 0.105346,-0.40941 0.121193,-0.556514 0.120432,-1.117939 -5.6e-4,-0.413505 -0.01062,-0.589262 -0.04424,-0.7730425 C 11.354179,9.1339452 11.082019,8.5886519 10.611756,8.1209995 10.074121,7.5863487 9.4255083,7.2972926 8.444004,7.1549344 8.2005816,7.1196282 6.0600973,7.1171189 5.6253717,7.15163 l -0.2497523,0.019827 -0.00602,3.607289 -0.00602,3.607289 0.2319891,0.01758 c 0.5816568,0.04407 0.7794127,0.05127 1.4995271,0.05464 0.4224186,0.002 0.8719726,-0.0079 0.9990089,-0.02185 z"
     id="path2" />
  <path
     style="fill:#ffffff;stroke-width:0.0237859"
     d="M 18.969277,9.8590119 C 18.195877,9.7528022 17.570136,9.456979 17.08989,8.9705197 16.512606,8.385766 16.243538,7.7349631 16.110071,6.6005946 c -0.04335,-0.3684666 -0.04323,-2.9441094 1.54e-4,-3.2943508 0.06003,-0.4845985 0.125311,-0.8195056 0.208263,-1.0684357 0.453737,-1.36162281 1.47703,-2.11763115 2.995684,-2.21321149 1.128191,-0.07100551 2.099236,0.256213 2.78439,0.93827107 0.332133,0.33063292 0.736802,0.96997732 0.680512,1.07515562 -0.02645,0.049429 -1.126909,0.5142126 -1.189039,0.5021981 -0.01997,-0.00386 -0.096,-0.1061883 -0.168966,-0.2273938 C 21.128022,1.8260362 20.910177,1.604254 20.553006,1.4290729 20.226482,1.2689234 20.116989,1.2487382 19.575818,1.2489277 c -0.4549,1.593e-4 -0.483278,0.00292 -0.648452,0.063127 -0.257031,0.093687 -0.515895,0.2653182 -0.745128,0.4940339 -0.456228,0.4551979 -0.610838,0.9293895 -0.662318,2.0313351 -0.04447,0.9518136 -0.02068,2.4178613 0.04747,2.92508 0.117727,0.876315 0.498921,1.4067269 1.214236,1.6895482 0.254333,0.1005583 0.555058,0.1423856 0.913126,0.1270054 0.380258,-0.016334 0.612117,-0.072551 0.915698,-0.2220254 0.188015,-0.092573 0.259939,-0.1454731 0.428821,-0.315399 C 21.323002,7.7561494 21.44523,7.5032315 21.574754,6.9335978 21.628334,6.6979652 21.652784,5.8307062 21.606664,5.8015 21.588604,5.790065 21.175502,5.780545 20.688649,5.780345 19.83803,5.7799951 19.802498,5.778185 19.778837,5.733973 c -0.01483,-0.027714 -0.02462,-0.2540261 -0.02462,-0.5691632 0,-0.4438811 0.0057,-0.5288189 0.03738,-0.560533 0.03323,-0.033227 0.212322,-0.037378 1.612897,-0.037378 1.322257,0 1.582941,0.00542 1.62169,0.033722 0.04277,0.031237 0.04673,0.071113 0.0537,0.5411299 0.0081,0.5445129 -0.02573,1.4104291 -0.06717,1.72049 -0.12435,0.9303437 -0.407274,1.5679103 -0.924535,2.0834346 -0.509202,0.5074925 -1.151131,0.808271 -1.952856,0.9150186 -0.306731,0.040841 -0.862232,0.04004 -1.166034,-0.00168 z"
     id="path3" />
  <metadata
     id="metadata3">
    <rdf:RDF>
      <cc:Work
         rdf:about="">
        <dc:title>ResearchGate</dc:title>
      </cc:Work>
    </rdf:RDF>
  </metadata>
</svg>
